<svg xmlns="http://www.w3.org/2000/svg" viewBox="0 0 48 96" aria-hidden="true">
  <style>
    svg {
      image-rendering: pixelated;
      shape-rendering: crispEdges;
    }
  </style>

  <g>
    <rect x="22" y="18" width="4" height="4" fill="#fffaf0"/>
    <rect x="20" y="22" width="8" height="4" fill="#f1ead6"/>
    <rect x="18" y="26" width="12" height="4" fill="#e8dcc0"/>
    <rect x="20" y="30" width="8" height="4" fill="#f3ead6"/>

    <rect x="10" y="26" width="4" height="4" fill="#faf2dc"/>
    <rect x="8" y="30" width="8" height="4" fill="#ece2c6"/>
    <rect x="6" y="34" width="10" height="4" fill="#dfd0b3"/>
    <rect x="8" y="38" width="8" height="4" fill="#efe4ca"/>

    <rect x="34" y="26" width="4" height="4" fill="#faf2dc"/>
    <rect x="32" y="30" width="8" height="4" fill="#ece2c6"/>
    <rect x="32" y="34" width="10" height="4" fill="#dfd0b3"/>
    <rect x="32" y="38" width="8" height="4" fill="#efe4ca"/>

    <rect x="16" y="38" width="16" height="4" fill="#f5eed9"/>
    <rect x="14" y="42" width="20" height="4" fill="#e8dec3"/>
    <rect x="16" y="46" width="16" height="4" fill="#dbcdb1"/>

    <rect x="21" y="34" width="6" height="4" fill="#eecf73"/>
    <rect x="19" y="38" width="10" height="4" fill="#b98230"/>

    <rect x="22" y="46" width="4" height="10" fill="#64844a"/>
    <rect x="22" y="56" width="4" height="10" fill="#5a7641"/>
    <rect x="22" y="66" width="4" height="14" fill="#4f673a"/>

    <rect x="14" y="56" width="4" height="4" fill="#7ea963"/>
    <rect x="10" y="60" width="8" height="4" fill="#709858"/>
    <rect x="8" y="64" width="10" height="4" fill="#5e8248"/>
    <rect x="10" y="68" width="8" height="4" fill="#709858"/>

    <rect x="30" y="60" width="4" height="4" fill="#7ea963"/>
    <rect x="30" y="64" width="8" height="4" fill="#709858"/>
    <rect x="30" y="68" width="10" height="4" fill="#5e8248"/>
    <rect x="30" y="72" width="8" height="4" fill="#709858"/>
  </g>
</svg>
